inDegrees=yes
name=ik_S42_A02_T02
DataType=double
version=3
OpenSimVersion=4.3-2021-08-27-4bc7ad9
endheader
time	pelvis_tilt	pelvis_list	pelvis_rotation	pelvis_tx	pelvis_ty	pelvis_tz	hip_flexion_r	hip_adduction_r	hip_rotation_r	knee_angle_r	knee_angle_r_beta	ankle_angle_r	subtalar_angle_r	mtp_angle_r	hip_flexion_l	hip_adduction_l	hip_rotation_l	knee_angle_l	knee_angle_l_beta	ankle_angle_l	subtalar_angle_l	mtp_angle_l	lumbar_extension	lumbar_bending	lumbar_rotation	arm_flex_r	arm_add_r	arm_rot_r	elbow_flex_r	pro_sup_r	wrist_flex_r	wrist_dev_r	arm_flex_l	arm_add_l	arm_rot_l	elbow_flex_l	pro_sup_l	wrist_flex_l	wrist_dev_l
13.09999999999981	-4.266248093324926	2.50233428543073	-86.81885173676889	0	0.9399999999999999	0	5.715540406627365	10.38736712830941	-6.407067038415188	7.922838845659468	0.1382796239616646	0	0	0	13.60664083144688	-5.948315443390364	-6.513496186559077	37.96395869170303	0.6625960762613367	0	0	0	0	0	0	23.69169841760021	-23.69169841760021	3.620874451631263	66.10541338493825	86.37912575417992	0	0	23.69169841760021	-23.69169841760021	3.620874451631263	66.10541338493825	86.37912575392343	0	0
13.11999999999981	-4.222505687696359	2.591755053465632	-86.79294979375953	0	0.9399999999999999	0	6.356413445383125	10.39118228898835	-6.376096758057031	8.003900611498793	0.1396944186730414	0	0	0	12.04790671310887	-6.092258455424297	-7.84314127963076	38.3018849217571	0.6684940016046321	0	0	0	0	0	0	23.69694278172758	-23.69694278172758	3.621540230344946	66.11490308368478	86.37845997550258	0	0	23.69694278172758	-23.69694278172758	3.621540230344946	66.11490308368478	86.3784599752462	0	0
13.13999999999981	-4.093826320111413	2.798594349809295	-86.78837022448273	0	0.9399999999999999	0	7.097324496964289	10.26599852007178	-6.568247289719721	8.202302114773788	0.1431571781460964	0	0	0	10.66609257659304	-6.070916021786545	-9.168457493571031	38.38174751567777	0.669887866817731	0	0	0	0	0	0	23.70188638708047	-23.70188638708047	3.622167382812018	66.12384118428815	86.37783282306971	0	0	23.70188638708047	-23.70188638708047	3.622167382812018	66.12384118428815	86.37783282281343	0	0
13.15999999999981	-3.902758630988133	3.085518637474559	-86.72995430280237	0	0.9399999999999999	0	7.997167032863809	10.281423234997	-6.286829737427646	8.387061527840499	0.1463818382281628	0	0	0	9.424122647848414	-5.924425944620057	-10.30885399480461	38.11805567462371	0.665285575980692	0	0	0	0	0	0	23.70823729387408	-23.70823729387408	3.622974080445799	66.13533958321399	86.37702612547993	0	0	23.70823729387408	-23.70823729387408	3.622974080445799	66.13533958321399	86.37702612522378	0	0
13.17999999999981	-3.675536951846924	3.396879136330475	-86.63404637698585	0	0.9399999999999999	0	8.902744413703607	10.10475789243375	-6.161433265472589	8.525228709941064	0.1487933104740202	0	0	0	8.230278636899339	-5.558246144388066	-11.29364673588223	37.43531683616128	0.653369535318281	0	0	0	0	0	0	23.71549140412787	-23.71549140412787	3.623895470387358	66.14847225433174	86.37610473558863	0	0	23.71549140412787	-23.71549140412787	3.623895470387358	66.14847225433174	86.37610473533265	0	0
13.19999999999981	-3.335440414972745	3.888911273634625	-86.38607847921799	0	0.9399999999999999	0	9.904829745103742	9.726109358483285	-6.352165855700009	8.722866866100105	0.1522427470265662	0	0	0	7.241977949815403	-4.8773010247646	-11.89050708330487	36.32694973810286	0.6340248801363867	0	0	0	0	0	0	23.7225381923252	-23.7225381923252	3.624789849133333	66.16121821547002	86.37521035689144	0	0	23.7225381923252	-23.7225381923252	3.624789849133333	66.16121821547002	86.37521035663569	0	0
13.21999999999981	-3.303272757859834	4.159699884632118	-86.1141509108121	0	0.9399999999999999	0	10.6697023701424	9.675810457258391	-6.361824851697782	8.577430940544742	0.1497044112749397	0	0	0	6.137720356538227	-4.455896615860542	-11.65971462545209	34.84546935380408	0.608168169626662	0	0	0	0	0	0	23.72927912202145	-23.72927912202145	3.625643557431196	66.17338088526714	86.37435664864014	0	0	23.72927912202145	-23.72927912202145	3.625643557431196	66.17338088526714	86.37435664838458	0	0
13.23999999999981	-3.344018364099225	4.46648631297461	-85.78386934296381	0	0.9399999999999999	0	12.02377353582762	9.502413629087165	-6.170453030870979	8.81464961964922	0.1538446582725448	0	0	0	5.26590991454748	-3.969637143516432	-11.21747056109592	33.59338432263245	0.5863151633177813	0	0	0	0	0	0	23.73586026249724	-23.73586026249724	3.626476540470624	66.18524686100507	86.37352366564622	0	0	23.73586026249724	-23.73586026249724	3.626476540470624	66.18524686100507	86.37352366539079	0	0
13.25999999999981	-3.446352228430292	4.718640495094171	-85.4765406158803	0	0.9399999999999999	0	12.3802242124554	9.538947396244126	-6.427764316436858	8.325906253785835	0.1453144773409494	0	0	0	5.572110202000422	-3.954498841458943	-10.98069897975367	33.26730492000662	0.5806240041190243	0	0	0	0	0	0	23.73896510288898	-23.73896510288898	3.626868301990391	66.19082540447178	86.3731319041478	0	0	23.73896510288898	-23.73896510288898	3.626868301990391	66.19082540447178	86.3731319038924	0	0
13.27999999999981	-3.502061033694475	4.815829216803484	-85.34298017277661	0	0.9399999999999999	0	13.69427915549391	9.344453901027101	-6.21807048085631	8.054710491904816	0.1405812183786711	0	0	0	4.534348631008561	-3.392796614806039	-10.80363634028483	31.2207820902606	0.544905442522725	0	0	0	0	0	0	23.74625915356282	-23.74625915356282	3.627789984354767	66.2039514132105	86.37221022183367	0	0	23.74625915356282	-23.74625915356282	3.627789984354767	66.2039514132105	86.37221022157841	0	0
13.29999999999981	-3.641842625450631	4.998405303213202	-85.10568302466218	0	0.9399999999999999	0	13.94226043238796	9.433887273072983	-6.423640188038593	7.440457664816031	0.1298604841062884	0	0	0	2.495869851478366	-1.911546854330102	-9.607587872569866	25.3135611074921	0.4418049867305194	0	0	0	0	0	0	23.75651090160003	-23.75651090160003	3.629086632959365	66.22241862647043	86.37091357329976	0	0	23.75651090160003	-23.75651090160003	3.629086632959365	66.22241862647043	86.37091357304476	0	0
13.3199999999998	-3.749487683807003	5.16207733145281	-84.88190207549727	0	0.9399999999999999	0	14.73528738550511	9.45200334497814	-6.766039622220324	7.908500267220526	0.1380293685578496	0	0	0	2.687788523019995	-1.999194632932146	-9.381376453087759	25.31018031515325	0.4417459807728803	0	0	0	0	0	0	23.76017169186283	-23.76017169186283	3.629547448898065	66.22897785787592	86.37045275738619	0	0	23.76017169186283	-23.76017169186283	3.629547448898065	66.22897785787592	86.37045275713123	0	0
13.3399999999998	-3.830157127622025	5.380834144512066	-84.59890530939775	0	0.9399999999999999	0	15.73835425495797	9.382024424949462	-7.097513386424562	7.707277656478864	0.1345173714709486	0	0	0	1.533630896584311	-0.4648284326271175	-9.771646341199878	20.16810281394899	0.3519997979841432	0	0	0	0	0	0	23.76981821683716	-23.76981821683716	3.63076613649208	66.2463306851222	86.36923406985863	0	0	23.76981821683716	-23.76981821683716	3.63076613649208	66.2463306851222	86.36923406960386	0	0
13.3599999999998	-3.809153180905669	5.618679119271911	-84.29010363058606	0	0.9399999999999999	0	16.90238961073372	9.262454144842094	-7.248151141145375	7.841285980534058	0.1368562579507913	0	0	0	1.41252413805221	0.1547329470674898	-10.88087662150098	18.20428882471665	0.3177247779753143	0	0	0	0	0	0	23.77451998503878	-23.77451998503878	3.63136235937841	66.2548241072259	86.36863784700485	0	0	23.77451998503878	-23.77451998503878	3.63136235937841	66.2548241072259	86.36863784675018	0	0
13.3799999999998	-3.630301211133808	5.809380942709092	-83.93209969098886	0	0.9399999999999999	0	18.17678881996368	8.993626145625944	-7.096676427775026	8.087037873316749	0.1411454376228574	0	0	0	1.271322796591178	0.9388708414706209	-9.661742844659312	16.08428355736228	0.280723705900358	0	0	0	0	0	0	23.78272864499222	-23.78272864499222	3.632399119856565	66.26958503343424	86.36760108658318	0	0	23.78272864499222	-23.78272864499222	3.632399119856565	66.26958503343424	86.36760108632875	0	0
13.3999999999998	-3.199069953297426	5.914828666851733	-83.54437895391052	0	0.9399999999999999	0	19.36087102759754	8.442857503386419	-6.781727175856977	8.1938570399348	0.1430097837845788	0	0	0	1.099319311661682	2.15348384221023	-7.031138680060559	13.70531069840305	0.2392027966959367	0	0	0	0	0	0	23.78760886108726	-23.78760886108726	3.633154979659988	66.28057157470812	86.36684522682197	0	0	23.78760886108726	-23.78760886108726	3.633154979659988	66.28057157470812	86.36684522656768	0	0
13.4199999999998	-2.929507811533282	5.995321302396428	-83.29781089263717	0	0.9399999999999999	0	20.34361287183644	7.989964451822829	-6.631192554196573	8.133543213297411	0.1419571089252793	0	0	0	1.331499875347244	2.663158893911698	-7.087762988411339	12.53749725127273	0.218820606994448	0	0	0	0	0	0	23.79274907668102	-23.79274907668102	3.63380606468869	66.28984413651327	86.36619414182879	0	0	23.79274907668102	-23.79274907668102	3.63380606468869	66.28984413651327	86.36619414157455	0	0
13.4399999999998	-1.920001268133991	6.190552929844927	-82.55043969712963	0	0.9399999999999999	0	21.15669203186092	6.559807973973341	-7.195708889940287	7.757491980570632	0.1353937767580135	0	0	0	1.710539777394286	3.736313402644738	-7.124279386212504	11.92843552453236	0.2081904745149465	0	0	0	0	0	0	23.80193102737747	-23.80193102737747	3.634967872917031	66.3063869418304	86.36503233366383	0	0	23.80193102737747	-23.80193102737747	3.634967872917031	66.3063869418304	86.36503233340972	0	0
13.4599999999998	-1.459228718755792	6.102718554143655	-82.302990291123	0	0.9399999999999999	0	21.56603308251926	5.840135464980866	-7.699013239623533	7.756052277813971	0.1353686492046597	0	0	0	1.849743932772571	4.149592327835594	-7.617587794788231	12.24027897166652	0.2136331694182064	0	0	0	0	0	0	23.80415280310296	-23.80415280310296	3.635247674384753	66.31036871321685	86.36475253221134	0	0	23.80415280310296	-23.80415280310296	3.635247674384753	66.31036871321685	86.36475253195725	0	0
13.4799999999998	-1.060252039870699	5.889281074677338	-82.09429034872562	0	0.9399999999999999	0	21.7833262085532	5.223679033654203	-8.60519155717693	7.397470530113452	0.1291102170697301	0	0	0	2.228601622636487	4.429894802527311	-8.355832384905986	12.27269625251445	0.2141989577035465	0	0	0	0	0	0	23.8077953331498	-23.8077953331498	3.635706093045296	66.31689144357095	86.36429411357577	0	0	23.8077953331498	-23.8077953331498	3.635706093045296	66.31689144357095	86.36429411332178	0	0
13.4999999999998	-0.9201325662208997	5.726199879982119	-82.04372779407043	0	0.9399999999999999	0	21.96864954064412	4.877496644717762	-9.45764341772453	6.723641686957522	0.1173496851617546	0	0	0	2.719883755310159	4.605103684671877	-8.179496850820069	12.88491639753151	0.2248842149811314	0	0	0	0	0	0	23.81259318727127	-23.81259318727127	3.636313733429859	66.32554407633489	86.36368647322431	0	0	23.81259318727127	-23.81259318727127	3.636313733429859	66.32554407633489	86.36368647297047	0	0
13.5199999999998	-0.6987291431239075	5.478730947539618	-81.96664269335406	0	0.9399999999999999	0	22.61911424368095	4.04840074467044	-11.18637054221628	5.894301568675826	0.1028749694788598	0	0	0	3.077581923888542	5.437031941050694	-6.994121022055547	11.62987810758441	0.2029796645829552	0	0	0	0	0	0	23.81695333483808	-23.81695333483808	3.636992806154748	66.33542470650488	86.3630074005374	0	0	23.81695333483808	-23.81695333483808	3.636992806154748	66.33542470650488	86.36300740028372	0	0
